<?xml version="1.0" encoding="UTF-8" standalone="no"?><svg xmlns="http://www.w3.org/2000/svg" xmlns:xlink="http://www.w3.org/1999/xlink" contentStyleType="text/css" height="274px" preserveAspectRatio="none" style="width:497px;height:274px;background:#FFFFFF;" version="1.1" viewBox="0 0 497 274" width="497px" zoomAndPan="magnify"><defs/><g><!--cluster ual.hmis.sesion05.ejercicio05--><g id="cluster_ual.hmis.sesion05.ejercicio05"><path d="M8.5,130 L215.5,130 A3.75,3.75 0 0 1 218,132.5 L225,153.6094 L487.5,153.6094 A2.5,2.5 0 0 1 490,156.1094 L490,245.5 A2.5,2.5 0 0 1 487.5,248 L8.5,248 A2.5,2.5 0 0 1 6,245.5 L6,132.5 A2.5,2.5 0 0 1 8.5,130 " fill="none" style="stroke:#000000;stroke-width:1.5;"/><line style="stroke:#000000;stroke-width:1.5;" x1="6" x2="225" y1="153.6094" y2="153.6094"/><text fill="#000000" font-family="sans-serif" font-size="14" font-weight="bold" lengthAdjust="spacing" textLength="206" x="10" y="146.5332">ual.hmis.sesion05.ejercicio05</text></g><!--cluster java.lang--><g id="cluster_java.lang"><path d="M197.5,6 L261.5,6 A3.75,3.75 0 0 1 264,8.5 L271,29.6094 L298.5,29.6094 A2.5,2.5 0 0 1 301,32.1094 L301,103.5 A2.5,2.5 0 0 1 298.5,106 L197.5,106 A2.5,2.5 0 0 1 195,103.5 L195,8.5 A2.5,2.5 0 0 1 197.5,6 " fill="none" style="stroke:#000000;stroke-width:1.5;"/><line style="stroke:#000000;stroke-width:1.5;" x1="195" x2="271" y1="29.6094" y2="29.6094"/><text fill="#000000" font-family="sans-serif" font-size="14" font-weight="bold" lengthAdjust="spacing" textLength="63" x="199" y="22.5332">java.lang</text></g><!--class ual.hmis.sesion05.ejercicio05.Ejercicio05--><a href="Ejercicio05.html" target="_top" title="Ejercicio05.html" xlink:actuate="onRequest" xlink:href="Ejercicio05.html" xlink:show="new" xlink:title="Ejercicio05.html" xlink:type="simple"><g id="elem_ual.hmis.sesion05.ejercicio05.Ejercicio05"><rect codeLine="3" fill="#F1F1F1" height="65.6094" id="ual.hmis.sesion05.ejercicio05.Ejercicio05" rx="2.5" ry="2.5" style="stroke:#181818;stroke-width:0.5;" width="451" x="22.5" y="166"/><ellipse cx="209.25" cy="182" fill="#ADD1B2" rx="11" ry="11" style="stroke:#181818;stroke-width:1.0;"/><path d="M212.0156,177.875 Q212.1719,177.6563 212.3594,177.5469 Q212.5469,177.4375 212.7656,177.4375 Q213.1406,177.4375 213.375,177.7031 Q213.6094,177.9531 213.6094,178.5625 L213.6094,180.0156 Q213.6094,180.625 213.375,180.8906 Q213.1406,181.1563 212.7656,181.1563 Q212.4219,181.1563 212.2188,180.9531 Q212.0156,180.7656 211.9063,180.25 Q211.8594,179.8906 211.6719,179.7031 Q211.3438,179.3281 210.7344,179.1094 Q210.125,178.8906 209.5,178.8906 Q208.7344,178.8906 208.0938,179.2188 Q207.4688,179.5469 206.9688,180.2969 Q206.4844,181.0469 206.4844,182.0781 L206.4844,183.1719 Q206.4844,184.4063 207.375,185.2344 Q208.2656,186.0469 209.8594,186.0469 Q210.7969,186.0469 211.4531,185.7969 Q211.8438,185.6406 212.2656,185.2031 Q212.5313,184.9375 212.6719,184.8594 Q212.8281,184.7813 213.0313,184.7813 Q213.3594,184.7813 213.6094,185.0469 Q213.875,185.2969 213.875,185.6406 Q213.875,185.9844 213.5313,186.3906 Q213.0313,186.9688 212.2344,187.2969 Q211.1563,187.75 209.8594,187.75 Q208.3438,187.75 207.1406,187.125 Q206.1563,186.625 205.4688,185.5625 Q204.7813,184.4844 204.7813,183.2031 L204.7813,182.0469 Q204.7813,180.7188 205.3906,179.5781 Q206.0156,178.4219 207.1094,177.8125 Q208.2031,177.1875 209.4375,177.1875 Q210.1719,177.1875 210.8125,177.3594 Q211.4688,177.5156 212.0156,177.875 Z " fill="#000000"/><text fill="#000000" font-family="sans-serif" font-size="14" lengthAdjust="spacing" textLength="69" x="229.75" y="187.7285">Ejercicio05</text><line style="stroke:#181818;stroke-width:0.5;" x1="23.5" x2="472.5" y1="198" y2="198"/><line style="stroke:#181818;stroke-width:0.5;" x1="23.5" x2="472.5" y1="206" y2="206"/><ellipse cx="33.5" cy="220.3047" fill="#84BE84" rx="3" ry="3" style="stroke:#038048;stroke-width:1.0;"/><text fill="#000000" font-family="sans-serif" font-size="14" lengthAdjust="spacing" textLength="425" x="42.5" y="224.5332">fusionar(ArrayList&lt;Integer&gt;, ArrayList&lt;Integer&gt;): ArrayList&lt;Integer&gt;</text></g></a><!--class java.lang.Object--><g id="elem_java.lang.Object"><rect codeLine="11" fill="#F1F1F1" height="48" id="java.lang.Object" rx="2.5" ry="2.5" style="stroke:#181818;stroke-width:0.5;" width="73" x="211.5" y="42"/><ellipse cx="226.5" cy="58" fill="#ADD1B2" rx="11" ry="11" style="stroke:#181818;stroke-width:1.0;"/><path d="M229.2656,53.875 Q229.4219,53.6563 229.6094,53.5469 Q229.7969,53.4375 230.0156,53.4375 Q230.3906,53.4375 230.625,53.7031 Q230.8594,53.9531 230.8594,54.5625 L230.8594,56.0156 Q230.8594,56.625 230.625,56.8906 Q230.3906,57.1563 230.0156,57.1563 Q229.6719,57.1563 229.4688,56.9531 Q229.2656,56.7656 229.1563,56.25 Q229.1094,55.8906 228.9219,55.7031 Q228.5938,55.3281 227.9844,55.1094 Q227.375,54.8906 226.75,54.8906 Q225.9844,54.8906 225.3438,55.2188 Q224.7188,55.5469 224.2188,56.2969 Q223.7344,57.0469 223.7344,58.0781 L223.7344,59.1719 Q223.7344,60.4063 224.625,61.2344 Q225.5156,62.0469 227.1094,62.0469 Q228.0469,62.0469 228.7031,61.7969 Q229.0938,61.6406 229.5156,61.2031 Q229.7813,60.9375 229.9219,60.8594 Q230.0781,60.7813 230.2813,60.7813 Q230.6094,60.7813 230.8594,61.0469 Q231.125,61.2969 231.125,61.6406 Q231.125,61.9844 230.7813,62.3906 Q230.2813,62.9688 229.4844,63.2969 Q228.4063,63.75 227.1094,63.75 Q225.5938,63.75 224.3906,63.125 Q223.4063,62.625 222.7188,61.5625 Q222.0313,60.4844 222.0313,59.2031 L222.0313,58.0469 Q222.0313,56.7188 222.6406,55.5781 Q223.2656,54.4219 224.3594,53.8125 Q225.4531,53.1875 226.6875,53.1875 Q227.4219,53.1875 228.0625,53.3594 Q228.7188,53.5156 229.2656,53.875 Z " fill="#000000"/><text fill="#000000" font-family="sans-serif" font-size="14" lengthAdjust="spacing" textLength="41" x="240.5" y="63.7285">Object</text><line style="stroke:#181818;stroke-width:0.5;" x1="212.5" x2="283.5" y1="74" y2="74"/><line style="stroke:#181818;stroke-width:0.5;" x1="212.5" x2="283.5" y1="82" y2="82"/></g><!--reverse link java.lang.Object to ual.hmis.sesion05.ejercicio05.Ejercicio05--><g id="link_java.lang.Object_ual.hmis.sesion05.ejercicio05.Ejercicio05"><path codeLine="7" d="M248,110.16 C248,128.29 248,149.01 248,165.78 " fill="none" id="java.lang.Object-backto-ual.hmis.sesion05.ejercicio05.Ejercicio05" style="stroke:#181818;stroke-width:1.0;"/><polygon fill="none" points="241,110.12,248,90.12,255,110.12,241,110.12" style="stroke:#181818;stroke-width:1.0;"/></g><text fill="#888888" font-family="sans-serif" font-size="10" lengthAdjust="spacing" textLength="184" x="149.5" y="264.3809">UMLDoclet 2.1.0, PlantUML 1.2022.14</text><!--SRC=[RK_12e904Btx5NC9b7Anm4j44DGXCEhIIJnCowWhgnkxgn3LlwSOjL3lCimRtflt000QhCbSaHEqA5bP2yCC6Q6QA6PKaUQ22nN5SFSyU8DBD0PspZ5DdOsLjfPPrYl0mJHl1rVK_aPhl2N2sDM-iLIGNi_WbmkMVyYFu_ERfi8EcSIcOCTBHTp2wX66RZhF4NpRVcHEph7OQEEgEFN_DUHA3UDyIBQAIxAmO7CMpU3KszYUXKb7UYZf1oy0]--></g></svg>