<?xml version="1.0" encoding="UTF-8" standalone="no"?><svg xmlns="http://www.w3.org/2000/svg" xmlns:xlink="http://www.w3.org/1999/xlink" contentStyleType="text/css" height="274px" preserveAspectRatio="none" style="width:281px;height:274px;background:#FFFFFF;" version="1.1" viewBox="0 0 281 274" width="281px" zoomAndPan="magnify"><defs/><g><!--cluster ual.hmis.sesion05.ejercicio03--><g id="cluster_ual.hmis.sesion05.ejercicio03"><path d="M8.5,130 L215.5,130 A3.75,3.75 0 0 1 218,132.5 L225,153.6094 L271.5,153.6094 A2.5,2.5 0 0 1 274,156.1094 L274,245.5 A2.5,2.5 0 0 1 271.5,248 L8.5,248 A2.5,2.5 0 0 1 6,245.5 L6,132.5 A2.5,2.5 0 0 1 8.5,130 " fill="none" style="stroke:#000000;stroke-width:1.5;"/><line style="stroke:#000000;stroke-width:1.5;" x1="6" x2="225" y1="153.6094" y2="153.6094"/><text fill="#000000" font-family="sans-serif" font-size="14" font-weight="bold" lengthAdjust="spacing" textLength="206" x="10" y="146.5332">ual.hmis.sesion05.ejercicio03</text></g><!--cluster java.lang--><g id="cluster_java.lang"><path d="M89.5,6 L153.5,6 A3.75,3.75 0 0 1 156,8.5 L163,29.6094 L190.5,29.6094 A2.5,2.5 0 0 1 193,32.1094 L193,103.5 A2.5,2.5 0 0 1 190.5,106 L89.5,106 A2.5,2.5 0 0 1 87,103.5 L87,8.5 A2.5,2.5 0 0 1 89.5,6 " fill="none" style="stroke:#000000;stroke-width:1.5;"/><line style="stroke:#000000;stroke-width:1.5;" x1="87" x2="163" y1="29.6094" y2="29.6094"/><text fill="#000000" font-family="sans-serif" font-size="14" font-weight="bold" lengthAdjust="spacing" textLength="63" x="91" y="22.5332">java.lang</text></g><!--class ual.hmis.sesion05.ejercicio03.Ejercicio03--><a href="Ejercicio03.html" target="_top" title="Ejercicio03.html" xlink:actuate="onRequest" xlink:href="Ejercicio03.html" xlink:show="new" xlink:title="Ejercicio03.html" xlink:type="simple"><g id="elem_ual.hmis.sesion05.ejercicio03.Ejercicio03"><rect codeLine="3" fill="#F1F1F1" height="65.6094" id="ual.hmis.sesion05.ejercicio03.Ejercicio03" rx="2.5" ry="2.5" style="stroke:#181818;stroke-width:0.5;" width="235" x="22.5" y="166"/><ellipse cx="101.25" cy="182" fill="#ADD1B2" rx="11" ry="11" style="stroke:#181818;stroke-width:1.0;"/><path d="M104.0156,177.875 Q104.1719,177.6563 104.3594,177.5469 Q104.5469,177.4375 104.7656,177.4375 Q105.1406,177.4375 105.375,177.7031 Q105.6094,177.9531 105.6094,178.5625 L105.6094,180.0156 Q105.6094,180.625 105.375,180.8906 Q105.1406,181.1563 104.7656,181.1563 Q104.4219,181.1563 104.2188,180.9531 Q104.0156,180.7656 103.9063,180.25 Q103.8594,179.8906 103.6719,179.7031 Q103.3438,179.3281 102.7344,179.1094 Q102.125,178.8906 101.5,178.8906 Q100.7344,178.8906 100.0938,179.2188 Q99.4688,179.5469 98.9688,180.2969 Q98.4844,181.0469 98.4844,182.0781 L98.4844,183.1719 Q98.4844,184.4063 99.375,185.2344 Q100.2656,186.0469 101.8594,186.0469 Q102.7969,186.0469 103.4531,185.7969 Q103.8438,185.6406 104.2656,185.2031 Q104.5313,184.9375 104.6719,184.8594 Q104.8281,184.7813 105.0313,184.7813 Q105.3594,184.7813 105.6094,185.0469 Q105.875,185.2969 105.875,185.6406 Q105.875,185.9844 105.5313,186.3906 Q105.0313,186.9688 104.2344,187.2969 Q103.1563,187.75 101.8594,187.75 Q100.3438,187.75 99.1406,187.125 Q98.1563,186.625 97.4688,185.5625 Q96.7813,184.4844 96.7813,183.2031 L96.7813,182.0469 Q96.7813,180.7188 97.3906,179.5781 Q98.0156,178.4219 99.1094,177.8125 Q100.2031,177.1875 101.4375,177.1875 Q102.1719,177.1875 102.8125,177.3594 Q103.4688,177.5156 104.0156,177.875 Z " fill="#000000"/><text fill="#000000" font-family="sans-serif" font-size="14" lengthAdjust="spacing" textLength="69" x="121.75" y="187.7285">Ejercicio03</text><line style="stroke:#181818;stroke-width:0.5;" x1="23.5" x2="256.5" y1="198" y2="198"/><line style="stroke:#181818;stroke-width:0.5;" x1="23.5" x2="256.5" y1="206" y2="206"/><ellipse cx="33.5" cy="220.3047" fill="#84BE84" rx="3" ry="3" style="stroke:#038048;stroke-width:1.0;"/><text fill="#000000" font-family="sans-serif" font-size="14" lengthAdjust="spacing" textLength="209" x="42.5" y="224.5332">encriptarPassword(String): String</text></g></a><!--class java.lang.Object--><g id="elem_java.lang.Object"><rect codeLine="11" fill="#F1F1F1" height="48" id="java.lang.Object" rx="2.5" ry="2.5" style="stroke:#181818;stroke-width:0.5;" width="73" x="103.5" y="42"/><ellipse cx="118.5" cy="58" fill="#ADD1B2" rx="11" ry="11" style="stroke:#181818;stroke-width:1.0;"/><path d="M121.2656,53.875 Q121.4219,53.6563 121.6094,53.5469 Q121.7969,53.4375 122.0156,53.4375 Q122.3906,53.4375 122.625,53.7031 Q122.8594,53.9531 122.8594,54.5625 L122.8594,56.0156 Q122.8594,56.625 122.625,56.8906 Q122.3906,57.1563 122.0156,57.1563 Q121.6719,57.1563 121.4688,56.9531 Q121.2656,56.7656 121.1563,56.25 Q121.1094,55.8906 120.9219,55.7031 Q120.5938,55.3281 119.9844,55.1094 Q119.375,54.8906 118.75,54.8906 Q117.9844,54.8906 117.3438,55.2188 Q116.7188,55.5469 116.2188,56.2969 Q115.7344,57.0469 115.7344,58.0781 L115.7344,59.1719 Q115.7344,60.4063 116.625,61.2344 Q117.5156,62.0469 119.1094,62.0469 Q120.0469,62.0469 120.7031,61.7969 Q121.0938,61.6406 121.5156,61.2031 Q121.7813,60.9375 121.9219,60.8594 Q122.0781,60.7813 122.2813,60.7813 Q122.6094,60.7813 122.8594,61.0469 Q123.125,61.2969 123.125,61.6406 Q123.125,61.9844 122.7813,62.3906 Q122.2813,62.9688 121.4844,63.2969 Q120.4063,63.75 119.1094,63.75 Q117.5938,63.75 116.3906,63.125 Q115.4063,62.625 114.7188,61.5625 Q114.0313,60.4844 114.0313,59.2031 L114.0313,58.0469 Q114.0313,56.7188 114.6406,55.5781 Q115.2656,54.4219 116.3594,53.8125 Q117.4531,53.1875 118.6875,53.1875 Q119.4219,53.1875 120.0625,53.3594 Q120.7188,53.5156 121.2656,53.875 Z " fill="#000000"/><text fill="#000000" font-family="sans-serif" font-size="14" lengthAdjust="spacing" textLength="41" x="132.5" y="63.7285">Object</text><line style="stroke:#181818;stroke-width:0.5;" x1="104.5" x2="175.5" y1="74" y2="74"/><line style="stroke:#181818;stroke-width:0.5;" x1="104.5" x2="175.5" y1="82" y2="82"/></g><!--reverse link java.lang.Object to ual.hmis.sesion05.ejercicio03.Ejercicio03--><g id="link_java.lang.Object_ual.hmis.sesion05.ejercicio03.Ejercicio03"><path codeLine="7" d="M140,110.16 C140,128.29 140,149.01 140,165.78 " fill="none" id="java.lang.Object-backto-ual.hmis.sesion05.ejercicio03.Ejercicio03" style="stroke:#181818;stroke-width:1.0;"/><polygon fill="none" points="133,110.12,140,90.12,147,110.12,133,110.12" style="stroke:#181818;stroke-width:1.0;"/></g><text fill="#888888" font-family="sans-serif" font-size="10" lengthAdjust="spacing" textLength="184" x="41.5" y="264.3809">UMLDoclet 2.1.0, PlantUML 1.2022.14</text><!--SRC=[JP2z3e8m481tdk8M4uXoGOsBSTHD8ubn8Wordb1IMj9M7DHt5uA1tdA_t_q102XMasqO9tWoYMKjB5goGgjaWrIHuO8BdQpX7GJm5owPjN3mabdcULYwMkPvHu0dSrBSYCOnatRqIvjxU756g2BQmc2CvTzfLCLQXfAf0i-tYhY3tIUE_T611qodZ9YtnB3rqCQdE2b71XvQz-fwEkurb-HWXKjC5f1sRLmNXLbBflzB6Fq0]--></g></svg>