<?xml version="1.0" encoding="UTF-8" standalone="no"?><svg xmlns="http://www.w3.org/2000/svg" xmlns:xlink="http://www.w3.org/1999/xlink" contentStyleType="text/css" height="274px" preserveAspectRatio="none" style="width:235px;height:274px;background:#FFFFFF;" version="1.1" viewBox="0 0 235 274" width="235px" zoomAndPan="magnify"><defs/><g><!--cluster ual.hmis.sesion05.ejercicio01--><g id="cluster_ual.hmis.sesion05.ejercicio01"><path d="M8.5,130 L215.5,130 A3.75,3.75 0 0 1 218,132.5 L225,153.6094 L225.5,153.6094 A2.5,2.5 0 0 1 228,156.1094 L228,245.5 A2.5,2.5 0 0 1 225.5,248 L8.5,248 A2.5,2.5 0 0 1 6,245.5 L6,132.5 A2.5,2.5 0 0 1 8.5,130 " fill="none" style="stroke:#000000;stroke-width:1.5;"/><line style="stroke:#000000;stroke-width:1.5;" x1="6" x2="225" y1="153.6094" y2="153.6094"/><text fill="#000000" font-family="sans-serif" font-size="14" font-weight="bold" lengthAdjust="spacing" textLength="206" x="10" y="146.5332">ual.hmis.sesion05.ejercicio01</text></g><!--cluster java.lang--><g id="cluster_java.lang"><path d="M66.5,6 L130.5,6 A3.75,3.75 0 0 1 133,8.5 L140,29.6094 L167.5,29.6094 A2.5,2.5 0 0 1 170,32.1094 L170,103.5 A2.5,2.5 0 0 1 167.5,106 L66.5,106 A2.5,2.5 0 0 1 64,103.5 L64,8.5 A2.5,2.5 0 0 1 66.5,6 " fill="none" style="stroke:#000000;stroke-width:1.5;"/><line style="stroke:#000000;stroke-width:1.5;" x1="64" x2="140" y1="29.6094" y2="29.6094"/><text fill="#000000" font-family="sans-serif" font-size="14" font-weight="bold" lengthAdjust="spacing" textLength="63" x="68" y="22.5332">java.lang</text></g><!--class ual.hmis.sesion05.ejercicio01.Ejercicio01--><a href="Ejercicio01.html" target="_top" title="Ejercicio01.html" xlink:actuate="onRequest" xlink:href="Ejercicio01.html" xlink:show="new" xlink:title="Ejercicio01.html" xlink:type="simple"><g id="elem_ual.hmis.sesion05.ejercicio01.Ejercicio01"><rect codeLine="3" fill="#F1F1F1" height="65.6094" id="ual.hmis.sesion05.ejercicio01.Ejercicio01" rx="2.5" ry="2.5" style="stroke:#181818;stroke-width:0.5;" width="147" x="43.5" y="166"/><ellipse cx="79.2" cy="182" fill="#ADD1B2" rx="11" ry="11" style="stroke:#181818;stroke-width:1.0;"/><path d="M81.9656,177.875 Q82.1219,177.6563 82.3094,177.5469 Q82.4969,177.4375 82.7156,177.4375 Q83.0906,177.4375 83.325,177.7031 Q83.5594,177.9531 83.5594,178.5625 L83.5594,180.0156 Q83.5594,180.625 83.325,180.8906 Q83.0906,181.1563 82.7156,181.1563 Q82.3719,181.1563 82.1688,180.9531 Q81.9656,180.7656 81.8563,180.25 Q81.8094,179.8906 81.6219,179.7031 Q81.2938,179.3281 80.6844,179.1094 Q80.075,178.8906 79.45,178.8906 Q78.6844,178.8906 78.0438,179.2188 Q77.4188,179.5469 76.9188,180.2969 Q76.4344,181.0469 76.4344,182.0781 L76.4344,183.1719 Q76.4344,184.4063 77.325,185.2344 Q78.2156,186.0469 79.8094,186.0469 Q80.7469,186.0469 81.4031,185.7969 Q81.7938,185.6406 82.2156,185.2031 Q82.4813,184.9375 82.6219,184.8594 Q82.7781,184.7813 82.9813,184.7813 Q83.3094,184.7813 83.5594,185.0469 Q83.825,185.2969 83.825,185.6406 Q83.825,185.9844 83.4813,186.3906 Q82.9813,186.9688 82.1844,187.2969 Q81.1063,187.75 79.8094,187.75 Q78.2938,187.75 77.0906,187.125 Q76.1063,186.625 75.4188,185.5625 Q74.7313,184.4844 74.7313,183.2031 L74.7313,182.0469 Q74.7313,180.7188 75.3406,179.5781 Q75.9656,178.4219 77.0594,177.8125 Q78.1531,177.1875 79.3875,177.1875 Q80.1219,177.1875 80.7625,177.3594 Q81.4188,177.5156 81.9656,177.875 Z " fill="#000000"/><text fill="#000000" font-family="sans-serif" font-size="14" lengthAdjust="spacing" textLength="69" x="97.8" y="187.7285">Ejercicio01</text><line style="stroke:#181818;stroke-width:0.5;" x1="44.5" x2="189.5" y1="198" y2="198"/><line style="stroke:#181818;stroke-width:0.5;" x1="44.5" x2="189.5" y1="206" y2="206"/><ellipse cx="54.5" cy="220.3047" fill="#84BE84" rx="3" ry="3" style="stroke:#038048;stroke-width:1.0;"/><text fill="#000000" font-family="sans-serif" font-size="14" lengthAdjust="spacing" textLength="121" x="63.5" y="224.5332">transformar(int): int</text></g></a><!--class java.lang.Object--><g id="elem_java.lang.Object"><rect codeLine="11" fill="#F1F1F1" height="48" id="java.lang.Object" rx="2.5" ry="2.5" style="stroke:#181818;stroke-width:0.5;" width="73" x="80.5" y="42"/><ellipse cx="95.5" cy="58" fill="#ADD1B2" rx="11" ry="11" style="stroke:#181818;stroke-width:1.0;"/><path d="M98.2656,53.875 Q98.4219,53.6563 98.6094,53.5469 Q98.7969,53.4375 99.0156,53.4375 Q99.3906,53.4375 99.625,53.7031 Q99.8594,53.9531 99.8594,54.5625 L99.8594,56.0156 Q99.8594,56.625 99.625,56.8906 Q99.3906,57.1563 99.0156,57.1563 Q98.6719,57.1563 98.4688,56.9531 Q98.2656,56.7656 98.1563,56.25 Q98.1094,55.8906 97.9219,55.7031 Q97.5938,55.3281 96.9844,55.1094 Q96.375,54.8906 95.75,54.8906 Q94.9844,54.8906 94.3438,55.2188 Q93.7188,55.5469 93.2188,56.2969 Q92.7344,57.0469 92.7344,58.0781 L92.7344,59.1719 Q92.7344,60.4063 93.625,61.2344 Q94.5156,62.0469 96.1094,62.0469 Q97.0469,62.0469 97.7031,61.7969 Q98.0938,61.6406 98.5156,61.2031 Q98.7813,60.9375 98.9219,60.8594 Q99.0781,60.7813 99.2813,60.7813 Q99.6094,60.7813 99.8594,61.0469 Q100.125,61.2969 100.125,61.6406 Q100.125,61.9844 99.7813,62.3906 Q99.2813,62.9688 98.4844,63.2969 Q97.4063,63.75 96.1094,63.75 Q94.5938,63.75 93.3906,63.125 Q92.4063,62.625 91.7188,61.5625 Q91.0313,60.4844 91.0313,59.2031 L91.0313,58.0469 Q91.0313,56.7188 91.6406,55.5781 Q92.2656,54.4219 93.3594,53.8125 Q94.4531,53.1875 95.6875,53.1875 Q96.4219,53.1875 97.0625,53.3594 Q97.7188,53.5156 98.2656,53.875 Z " fill="#000000"/><text fill="#000000" font-family="sans-serif" font-size="14" lengthAdjust="spacing" textLength="41" x="109.5" y="63.7285">Object</text><line style="stroke:#181818;stroke-width:0.5;" x1="81.5" x2="152.5" y1="74" y2="74"/><line style="stroke:#181818;stroke-width:0.5;" x1="81.5" x2="152.5" y1="82" y2="82"/></g><!--reverse link java.lang.Object to ual.hmis.sesion05.ejercicio01.Ejercicio01--><g id="link_java.lang.Object_ual.hmis.sesion05.ejercicio01.Ejercicio01"><path codeLine="7" d="M117,110.16 C117,128.29 117,149.01 117,165.78 " fill="none" id="java.lang.Object-backto-ual.hmis.sesion05.ejercicio01.Ejercicio01" style="stroke:#181818;stroke-width:1.0;"/><polygon fill="none" points="110,110.12,117,90.12,124,110.12,110,110.12" style="stroke:#181818;stroke-width:1.0;"/></g><text fill="#888888" font-family="sans-serif" font-size="10" lengthAdjust="spacing" textLength="184" x="18.5" y="264.3809">UMLDoclet 2.1.0, PlantUML 1.2022.14</text><!--SRC=[JL0z2y903DtxAx88BThG2YxYg9kYYrFf48_KNhaFkJkxgF_TbagzDoJauxqN0W1WIBD_a61uai9MIu-UlRIcs21tx8GKqXObl984VX2Al8T3DAoggC8sQ5NN0mCYB8CZunlhDBbKcf1jOOZpokSltr5FgCZSyNphM0JOlVCyjaiYml_ycHOPJvTECZ5Bi0dieB5sJDVJSM-5uW1hBB5OmMMG2KCN5ZsxyHTfzWK0]--></g></svg>